<svg xmlns="http://www.w3.org/2000/svg" xmlns:xlink="http://www.w3.org/1999/xlink" width="500" zoomAndPan="magnify" viewBox="0 0 375 374.999991" height="500" preserveAspectRatio="xMidYMid meet" version="1.0"><defs><clipPath id="0934b530f6"><path d="M 119.835938 84.03125 L 254.835938 84.03125 L 254.835938 275.28125 L 119.835938 275.28125 Z M 119.835938 84.03125 " clip-rule="nonzero"/></clipPath></defs><g clip-path="url(#0934b530f6)"><path fill="#ffc107" d="M 187.335938 84.03125 C 186.230469 84.03125 185.128906 84.058594 184.027344 84.113281 C 182.925781 84.171875 181.824219 84.253906 180.726562 84.363281 C 179.628906 84.472656 178.53125 84.609375 177.441406 84.773438 C 176.351562 84.9375 175.261719 85.128906 174.179688 85.34375 C 173.097656 85.5625 172.023438 85.804688 170.953125 86.074219 C 169.882812 86.34375 168.816406 86.640625 167.761719 86.964844 C 166.707031 87.285156 165.660156 87.632812 164.621094 88.007812 C 163.582031 88.382812 162.550781 88.78125 161.53125 89.207031 C 160.511719 89.632812 159.503906 90.082031 158.507812 90.554688 C 157.511719 91.03125 156.523438 91.527344 155.550781 92.050781 C 154.578125 92.574219 153.617188 93.121094 152.671875 93.691406 C 151.726562 94.261719 150.792969 94.851562 149.875 95.46875 C 148.957031 96.085938 148.058594 96.722656 147.171875 97.382812 C 146.285156 98.042969 145.414062 98.726562 144.5625 99.429688 C 143.707031 100.132812 142.875 100.855469 142.054688 101.601562 C 141.238281 102.34375 140.4375 103.109375 139.660156 103.890625 C 138.878906 104.675781 138.117188 105.476562 137.375 106.296875 C 136.632812 107.121094 135.914062 107.957031 135.214844 108.816406 C 134.511719 109.671875 133.835938 110.542969 133.175781 111.433594 C 132.519531 112.324219 131.882812 113.230469 131.269531 114.152344 C 130.65625 115.074219 130.066406 116.007812 129.5 116.957031 C 128.929688 117.910156 128.386719 118.871094 127.867188 119.851562 C 127.34375 120.828125 126.847656 121.816406 126.375 122.816406 C 125.902344 123.820312 125.457031 124.832031 125.035156 125.855469 C 124.609375 126.878906 124.210938 127.914062 123.839844 128.957031 C 123.46875 130 123.121094 131.050781 122.800781 132.109375 C 122.476562 133.171875 122.183594 134.238281 121.914062 135.3125 C 121.644531 136.386719 121.402344 137.46875 121.1875 138.554688 C 120.96875 139.640625 120.78125 140.734375 120.617188 141.828125 C 120.453125 142.925781 120.320312 144.023438 120.210938 145.128906 C 120.101562 146.230469 120.015625 147.335938 119.960938 148.441406 C 119.90625 149.546875 119.878906 150.65625 119.878906 151.765625 C 119.878906 187.894531 181.550781 270.210938 184.160156 273.6875 C 184.347656 273.933594 184.554688 274.15625 184.792969 274.355469 C 185.03125 274.550781 185.285156 274.71875 185.5625 274.859375 C 185.835938 274.996094 186.125 275.101562 186.421875 275.171875 C 186.722656 275.242188 187.027344 275.28125 187.335938 275.28125 C 187.644531 275.28125 187.949219 275.242188 188.246094 275.171875 C 188.546875 275.101562 188.835938 274.996094 189.109375 274.859375 C 189.386719 274.71875 189.640625 274.550781 189.878906 274.355469 C 190.113281 274.15625 190.324219 273.933594 190.511719 273.6875 C 193.136719 270.195312 254.792969 187.878906 254.792969 151.765625 C 254.792969 150.65625 254.765625 149.546875 254.707031 148.441406 C 254.652344 147.335938 254.570312 146.230469 254.460938 145.128906 C 254.351562 144.023438 254.214844 142.925781 254.054688 141.828125 C 253.890625 140.734375 253.699219 139.640625 253.484375 138.554688 C 253.269531 137.46875 253.027344 136.386719 252.757812 135.3125 C 252.488281 134.238281 252.191406 133.171875 251.871094 132.109375 C 251.550781 131.050781 251.203125 130 250.832031 128.957031 C 250.457031 127.914062 250.0625 126.878906 249.636719 125.855469 C 249.214844 124.832031 248.765625 123.820312 248.292969 122.816406 C 247.820312 121.816406 247.324219 120.828125 246.804688 119.851562 C 246.285156 118.871094 245.738281 117.910156 245.171875 116.957031 C 244.605469 116.007812 244.015625 115.074219 243.402344 114.152344 C 242.789062 113.230469 242.152344 112.324219 241.492188 111.433594 C 240.835938 110.542969 240.15625 109.671875 239.457031 108.816406 C 238.757812 107.957031 238.035156 107.121094 237.292969 106.296875 C 236.554688 105.476562 235.792969 104.675781 235.011719 103.890625 C 234.230469 103.109375 233.433594 102.34375 232.617188 101.601562 C 231.796875 100.855469 230.960938 100.132812 230.109375 99.429688 C 229.257812 98.726562 228.386719 98.042969 227.5 97.382812 C 226.613281 96.722656 225.710938 96.085938 224.792969 95.46875 C 223.878906 94.851562 222.945312 94.261719 222 93.691406 C 221.050781 93.121094 220.09375 92.574219 219.121094 92.050781 C 218.144531 91.527344 217.160156 91.03125 216.164062 90.554688 C 215.167969 90.082031 214.15625 89.632812 213.136719 89.207031 C 212.117188 88.78125 211.089844 88.382812 210.050781 88.007812 C 209.011719 87.632812 207.964844 87.285156 206.910156 86.964844 C 205.851562 86.640625 204.789062 86.34375 203.71875 86.074219 C 202.648438 85.804688 201.574219 85.5625 200.492188 85.34375 C 199.40625 85.128906 198.320312 84.9375 197.230469 84.773438 C 196.136719 84.609375 195.042969 84.472656 193.945312 84.363281 C 192.847656 84.253906 191.746094 84.171875 190.644531 84.113281 C 189.542969 84.058594 188.4375 84.03125 187.335938 84.03125 Z M 187.335938 187.625 C 186.164062 187.625 185 187.566406 183.835938 187.449219 C 182.671875 187.335938 181.515625 187.164062 180.367188 186.933594 C 179.222656 186.707031 178.085938 186.421875 176.96875 186.078125 C 175.847656 185.738281 174.75 185.34375 173.667969 184.894531 C 172.589844 184.445312 171.53125 183.941406 170.5 183.390625 C 169.46875 182.835938 168.464844 182.230469 167.496094 181.578125 C 166.523438 180.925781 165.582031 180.230469 164.679688 179.484375 C 163.773438 178.738281 162.910156 177.949219 162.082031 177.121094 C 161.253906 176.289062 160.472656 175.421875 159.730469 174.511719 C 158.988281 173.605469 158.289062 172.664062 157.640625 171.6875 C 156.992188 170.710938 156.390625 169.703125 155.839844 168.667969 C 155.289062 167.632812 154.789062 166.570312 154.339844 165.488281 C 153.894531 164.402344 153.5 163.296875 153.160156 162.171875 C 152.820312 161.050781 152.535156 159.910156 152.308594 158.757812 C 152.082031 157.609375 151.910156 156.449219 151.792969 155.277344 C 151.679688 154.109375 151.621094 152.9375 151.621094 151.765625 C 151.621094 150.589844 151.679688 149.417969 151.792969 148.25 C 151.910156 147.082031 152.082031 145.921875 152.308594 144.769531 C 152.535156 143.617188 152.820312 142.476562 153.160156 141.355469 C 153.5 140.230469 153.894531 139.125 154.339844 138.042969 C 154.789062 136.957031 155.289062 135.894531 155.839844 134.859375 C 156.390625 133.824219 156.992188 132.816406 157.640625 131.839844 C 158.289062 130.863281 158.988281 129.921875 159.730469 129.015625 C 160.472656 128.105469 161.253906 127.238281 162.082031 126.40625 C 162.910156 125.578125 163.773438 124.789062 164.679688 124.042969 C 165.582031 123.300781 166.523438 122.601562 167.496094 121.949219 C 168.464844 121.296875 169.46875 120.691406 170.5 120.140625 C 171.53125 119.585938 172.589844 119.082031 173.667969 118.632812 C 174.75 118.183594 175.847656 117.789062 176.96875 117.449219 C 178.085938 117.109375 179.222656 116.824219 180.367188 116.59375 C 181.515625 116.363281 182.671875 116.191406 183.835938 116.078125 C 185 115.960938 186.164062 115.90625 187.335938 115.90625 C 188.503906 115.90625 189.671875 115.960938 190.835938 116.078125 C 192 116.191406 193.15625 116.363281 194.304688 116.59375 C 195.449219 116.824219 196.582031 117.109375 197.703125 117.449219 C 198.820312 117.789062 199.921875 118.183594 201.003906 118.632812 C 202.082031 119.082031 203.140625 119.585938 204.171875 120.140625 C 205.203125 120.691406 206.203125 121.296875 207.175781 121.949219 C 208.148438 122.601562 209.085938 123.300781 209.992188 124.042969 C 210.894531 124.789062 211.761719 125.578125 212.589844 126.40625 C 213.414062 127.238281 214.199219 128.105469 214.941406 129.015625 C 215.683594 129.921875 216.378906 130.863281 217.03125 131.839844 C 217.679688 132.816406 218.28125 133.824219 218.832031 134.859375 C 219.382812 135.894531 219.882812 136.957031 220.332031 138.042969 C 220.777344 139.125 221.171875 140.230469 221.511719 141.355469 C 221.851562 142.476562 222.132812 143.617188 222.363281 144.769531 C 222.589844 145.921875 222.761719 147.082031 222.875 148.25 C 222.992188 149.417969 223.046875 150.589844 223.046875 151.765625 C 223.046875 152.9375 222.992188 154.109375 222.875 155.277344 C 222.761719 156.449219 222.589844 157.609375 222.363281 158.757812 C 222.132812 159.910156 221.851562 161.050781 221.511719 162.171875 C 221.171875 163.296875 220.777344 164.402344 220.332031 165.488281 C 219.882812 166.570312 219.382812 167.632812 218.832031 168.667969 C 218.28125 169.703125 217.679688 170.710938 217.03125 171.6875 C 216.378906 172.664062 215.683594 173.605469 214.941406 174.511719 C 214.199219 175.421875 213.414062 176.289062 212.589844 177.121094 C 211.761719 177.949219 210.894531 178.738281 209.992188 179.484375 C 209.085938 180.230469 208.148438 180.925781 207.175781 181.578125 C 206.203125 182.230469 205.203125 182.835938 204.171875 183.390625 C 203.140625 183.941406 202.082031 184.445312 201.003906 184.894531 C 199.921875 185.34375 198.820312 185.738281 197.703125 186.078125 C 196.582031 186.421875 195.449219 186.707031 194.304688 186.933594 C 193.15625 187.164062 192 187.335938 190.835938 187.449219 C 189.671875 187.566406 188.503906 187.625 187.335938 187.625 Z M 187.335938 187.625 " fill-opacity="1" fill-rule="nonzero"/></g></svg>